<svg width="225" height="244" viewBox="0 0 225 244" fill="none" xmlns="http://www.w3.org/2000/svg">
<g clip-path="url(#clip0_7047_20199)">
<path d="M112.19 243.64C174.151 243.64 224.38 193.411 224.38 131.45C224.38 69.4892 174.151 19.26 112.19 19.26C50.2292 19.26 0 69.4892 0 131.45C0 193.411 50.2292 243.64 112.19 243.64Z" fill="#EEEBFD"/>
<path d="M87.65 60.73L66.94 45.38C59.76 40.06 49.49 44.03 47.76 52.79L39.77 93.22L87.65 60.73Z" fill="#6D4AFF"/>
<path d="M59.8598 61.36L69.9098 68.82L52.0098 79.18L55.1698 63.17C55.5898 61.03 58.0998 60.06 59.8598 61.36Z" fill="#4A2DC5"/>
<path d="M170.68 178.05H53.6899V208.67H170.68V178.05Z" fill="#4129A3"/>
<path d="M115.22 236.95C126.033 236.95 134.8 228.184 134.8 217.37C134.8 206.556 126.033 197.79 115.22 197.79C104.406 197.79 95.6396 206.556 95.6396 217.37C95.6396 228.184 104.406 236.95 115.22 236.95Z" fill="#FC8F00"/>
<path d="M107.92 236.95H115.42V197.8H107.92V236.95Z" fill="#FC8F00"/>
<path d="M107.92 236.95C118.734 236.95 127.5 228.184 127.5 217.37C127.5 206.556 118.734 197.79 107.92 197.79C97.1061 197.79 88.3398 206.556 88.3398 217.37C88.3398 228.184 97.1061 236.95 107.92 236.95Z" fill="#FFAC2E"/>
<path d="M107.92 220.59C111.283 220.59 114.01 217.863 114.01 214.5C114.01 211.137 111.283 208.41 107.92 208.41C104.557 208.41 101.83 211.137 101.83 214.5C101.83 217.863 104.557 220.59 107.92 220.59Z" fill="#372580"/>
<path d="M107.92 224.02V214.5" stroke="#372580" stroke-width="5.66" stroke-miterlimit="10" stroke-linecap="round"/>
<path d="M188.17 118.68L208.53 94.81C214.33 88.01 211.07 77.49 202.44 75.17L147.53 64.94L188.17 118.68Z" fill="#6D4AFF"/>
<path d="M196.76 95.82L187.44 105.75L170.83 88.19L195.05 92.59C197.17 93.06 198.08 94.8 196.75 95.83L196.76 95.82Z" fill="#4A2DC5"/>
<path d="M201.52 147.07C198.71 188.7 148.32 200.2 107.11 197.42C70.8899 194.98 17.5099 176.47 20.3199 134.84C23.1299 93.21 66.5299 53.87 116.57 57.25C166.61 60.63 204.33 105.44 201.52 147.07Z" fill="#6D4AFF"/>
<path d="M154.417 157.536C169.835 152.085 178.412 136.573 173.574 122.889C168.737 109.205 152.316 102.531 136.898 107.981C121.48 113.432 112.903 128.944 117.741 142.628C122.579 156.312 138.999 162.986 154.417 157.536Z" fill="white"/>
<path d="M87.7855 140.594C94.4176 127.684 88.002 111.161 73.456 103.688C58.9099 96.2158 41.7416 100.624 35.1095 113.534C28.4774 126.444 34.893 142.968 49.4391 150.44C63.9851 157.913 81.1534 153.504 87.7855 140.594Z" fill="white"/>
<path d="M147.842 129.771C148.442 120.872 144.502 113.359 139.041 112.99C133.581 112.622 128.667 119.538 128.067 128.437C127.466 137.336 131.406 144.849 136.867 145.217C142.328 145.586 147.241 138.67 147.842 129.771Z" fill="#4129A3"/>
<path d="M89.78 124.14C82.9 103.58 53.3 93.91 38.52 111.41C33.91 116.97 32.36 124.47 33.53 131.67C28.5 120.49 33.78 106.91 44.58 101.3C62.25 91.38 87.78 103.82 89.79 124.14H89.78Z" fill="#372480"/>
<path d="M117.98 126.04C122.7 106.17 149.66 97.27 165.84 109.48C175.78 116.49 179.19 130.66 172.71 141.06C174.83 134.08 174.31 126.44 170.48 120.32C158.18 100.99 127.55 106.6 117.97 126.05L117.98 126.04Z" fill="#372480"/>
<path d="M92.8999 152.75C96.2099 152.97 98.7099 155.84 98.4899 159.14" stroke="white" stroke-width="2.5" stroke-miterlimit="10" stroke-linecap="round"/>
<path d="M104.88 153.56C101.57 153.34 98.7097 155.84 98.4897 159.15" stroke="white" stroke-width="2.5" stroke-miterlimit="10" stroke-linecap="round"/>
<path opacity="0.7" d="M144.7 122.72C146.765 122.72 148.44 121.046 148.44 118.98C148.44 116.914 146.765 115.24 144.7 115.24C142.634 115.24 140.96 116.914 140.96 118.98C140.96 121.046 142.634 122.72 144.7 122.72Z" fill="white"/>
<path d="M62.5961 124.011C63.1966 115.111 59.2565 107.598 53.7958 107.23C48.3351 106.862 43.4215 113.777 42.8211 122.676C42.2206 131.575 46.1607 139.088 51.6214 139.457C57.0821 139.825 61.9957 132.91 62.5961 124.011Z" fill="#4129A3"/>
<path opacity="0.7" d="M59.45 116.97C61.5155 116.97 63.19 115.296 63.19 113.23C63.19 111.164 61.5155 109.49 59.45 109.49C57.3844 109.49 55.71 111.164 55.71 113.23C55.71 115.296 57.3844 116.97 59.45 116.97Z" fill="white"/>
<path d="M4.87988 46.88L37.5299 48.91L9.59988 31.52L4.87988 46.88Z" fill="#4A2DC5"/>
<path d="M13.3198 11.26L45.1798 39.94L28.7398 0L13.3198 11.26Z" fill="#4A2DC5"/>
<path d="M49.1001 10.64L56.0601 35.32L61.7901 9.78L49.1001 10.64Z" fill="#4A2DC5"/>
</g>
<defs>
<clipPath id="clip0_7047_20199">
<rect width="224.37" height="243.64" fill="white"/>
</clipPath>
</defs>
</svg>
